<?xml version="1.0" standalone="no"?>
<!DOCTYPE svg PUBLIC "-//W3C//DTD SVG 20010904//EN"
 "http://www.w3.org/TR/2001/REC-SVG-20010904/DTD/svg10.dtd">
<svg version="1.0" xmlns="http://www.w3.org/2000/svg"
 width="512.000000pt" height="512.000000pt" viewBox="0 0 512.000000 512.000000"
 preserveAspectRatio="xMidYMid meet">
<metadata>
Created by potrace 1.11, written by Peter Selinger 2001-2013
</metadata>
<g transform="translate(0.000000,512.000000) scale(0.100000,-0.100000)"
fill="#000000" stroke="none">
<path d="M377 5105 c-173 -47 -316 -193 -362 -366 -22 -81 -22 -4277 0 -4358
46 -176 190 -320 366 -366 81 -22 4277 -22 4358 0 176 46 320 190 366 366 22
81 22 4277 0 4358 -46 176 -190 320 -366 366 -77 21 -4287 21 -4362 0z m166
-2308 c75 -331 142 -641 149 -689 6 -49 14 -88 18 -88 3 0 16 44 28 98 12 53
98 363 190 687 l168 590 94 0 94 0 138 -495 c75 -272 158 -578 183 -680 26
-102 49 -192 52 -200 4 -8 14 35 24 95 10 61 77 374 151 698 l133 587 107 0
108 0 -6 -27 c-3 -16 -95 -395 -203 -843 l-197 -815 -101 -3 c-90 -2 -102 -1
-107 15 -55 182 -349 1240 -357 1287 -7 36 -16 63 -19 61 -4 -3 -11 -26 -15
-52 -5 -34 -292 -1036 -371 -1296 -5 -16 -17 -17 -107 -15 l-102 3 -202 835
c-111 459 -203 838 -203 843 0 4 48 7 108 7 l107 0 138 -603z m3087 518 l0
-85 -275 0 -275 0 0 -760 0 -760 -105 0 -105 0 -2 758 -3 757 -272 3 -273 2 0
85 0 85 655 0 655 0 0 -85z m1310 0 l0 -85 -415 0 -415 0 0 -295 0 -295 355 0
355 0 0 -90 0 -90 -355 0 -355 0 0 -375 0 -375 -110 0 -110 0 0 845 0 845 525
0 525 0 0 -85z"/>
</g>
</svg>
